<?xml version="1.0" encoding="UTF-8"?>
<svg id="Calque_1" data-name="Calque 1" xmlns="http://www.w3.org/2000/svg" xmlns:xlink="http://www.w3.org/1999/xlink" viewBox="0 0 1836.16 821.56">
  <defs>
    <style>
      .cls-1 {
        fill: #960000;
      }

      .cls-1, .cls-2, .cls-3 {
        stroke-width: 0px;
      }

      .cls-2 {
        fill: url(#Dégradé_sans_nom_25);
      }

      .cls-3 {
        fill: url(#Dégradé_sans_nom_25-2);
      }
    </style>
    <radialGradient id="Dégradé_sans_nom_25" data-name="Dégradé sans nom 25" cx="915.47" cy="617.71" fx="915.47" fy="617.71" r="76.02" gradientUnits="userSpaceOnUse">
      <stop offset="0" stop-color="#e4956e"/>
      <stop offset="1" stop-color="red"/>
    </radialGradient>
    <radialGradient id="Dégradé_sans_nom_25-2" data-name="Dégradé sans nom 25" cx="1161.26" cy="634.81" fx="1161.26" fy="634.81" r="41.21" xlink:href="#Dégradé_sans_nom_25"/>
  </defs>
  <path class="cls-1" d="m1132.58,433.28c-2.48-4.26-8.96-3.05-9.74,1.82-4.47,27.86-14.03,87.43-14.8,91.27-1,5.02,3.01,147.6-45.18,211.86-48.2,64.26,35.14-29.12,19.08-200.81-16.07-171.7-68.28-111.45-68.28-111.45,0,0-217.88,198.81-5.02,395.6,0,0,273.36-132.3,123.95-388.28Z"/>
  <g>
    <path class="cls-2" d="m956.8,592.34l38.01,95.08s-121.06,35.3-158.67-142.27l120.66,47.19Z"/>
    <path class="cls-3" d="m1195.69,587.79l-51.13,31.71-17.73,61.64s60.19,14.87,68.86-93.35Z"/>
  </g>
  <path class="cls-1" d="m753.74,605.29l-367.62-185.71s169.57,162.65,367.62,185.71Z"/>
  <path class="cls-1" d="m1041.52,301.17l-123.04-176.64s87.95,87.18,123.04,176.64Z"/>
</svg>