<?xml version="1.0" encoding="UTF-8"?>
<svg id="Calque_1" data-name="Calque 1" xmlns="http://www.w3.org/2000/svg" viewBox="0 0 1836.16 681.19">
  <defs>
    <style>
      .cls-1 {
        fill: #fff;
        stroke-width: 0px;
      }
    </style>
  </defs>
  <g>
    <path class="cls-1" d="m756.33,566.83v-67.47h14.79c9.62,0,16.38.48,20.3,1.45s7.35,2.59,10.3,4.86c3.9,2.98,6.86,6.81,8.87,11.48,2.01,4.67,3.02,10,3.02,15.99s-1.01,11.3-3.02,15.92c-2.01,4.62-4.97,8.44-8.87,11.45-2.95,2.27-6.31,3.89-10.07,4.86-3.76.97-9.62,1.45-17.58,1.45h-17.74Zm10.97-9.91h9.22c5.07,0,8.87-.34,11.41-1.01,2.53-.68,4.74-1.81,6.61-3.41,2.55-2.18,4.46-4.89,5.74-8.13,1.27-3.24,1.91-7.01,1.91-11.31s-.64-8.07-1.91-11.31c-1.28-3.24-3.19-5.95-5.74-8.13-1.9-1.6-4.19-2.73-6.84-3.41-2.66-.68-6.81-1.01-12.47-1.01h-7.93v47.74Z"/>
    <path class="cls-1" d="m826.2,566.83v-67.47h37.65v9.31h-26.68v16.91h26.68v9.63h-26.68v21.8h26.68v9.82h-37.65Z"/>
    <path class="cls-1" d="m945.61,533.23c0,4.79-.9,9.33-2.7,13.6-1.8,4.27-4.42,8.08-7.86,11.43-3.47,3.35-7.39,5.92-11.75,7.7s-8.94,2.67-13.73,2.67-9.49-.9-13.89-2.7c-4.41-1.8-8.3-4.36-11.68-7.67-3.44-3.35-6.05-7.14-7.83-11.38-1.78-4.24-2.67-8.79-2.67-13.64s.89-9.37,2.67-13.64c1.78-4.27,4.39-8.09,7.83-11.48,3.44-3.35,7.34-5.9,11.71-7.65,4.36-1.75,8.99-2.63,13.87-2.63s9.46.88,13.8,2.63,8.24,4.3,11.68,7.65c3.44,3.41,6.06,7.26,7.86,11.54,1.8,4.29,2.7,8.81,2.7,13.57Zm-11.43,0c0-3.41-.62-6.65-1.87-9.72-1.24-3.07-3.03-5.81-5.37-8.2-2.27-2.37-4.91-4.19-7.9-5.46-3-1.27-6.15-1.91-9.47-1.91s-6.48.63-9.47,1.89c-3,1.26-5.66,3.09-8,5.48-2.34,2.37-4.12,5.09-5.35,8.16-1.23,3.07-1.84,6.33-1.84,9.77s.61,6.64,1.84,9.68,3.01,5.76,5.35,8.16c2.34,2.4,4.99,4.22,7.97,5.48,2.98,1.26,6.14,1.89,9.49,1.89s6.41-.63,9.38-1.89c2.96-1.26,5.63-3.09,8-5.48,2.34-2.4,4.12-5.12,5.37-8.18,1.24-3.06,1.87-6.27,1.87-9.65Z"/>
  </g>
  <g>
    <path class="cls-1" d="m948.79,566.83l21.89-35.3-19.36-32.17h11.52l9.72,16.5c.52.86,1.49,2.64,2.9,5.35.31.62.54,1.06.69,1.34.49-.95,1.04-1.97,1.64-3.04.6-1.08,1.28-2.26,2.05-3.55l10.28-16.59h11.24l-19.72,31.98,21.25,35.49h-12.12l-11.29-19.13c-.03-.06-.09-.17-.18-.32-1.23-2.3-2.37-4.47-3.41-6.5-.52,1.04-1.09,2.13-1.71,3.25-.61,1.12-1.28,2.27-1.98,3.43l-11.8,19.26h-11.61Z"/>
    <path class="cls-1" d="m1025.01,566.83v-30.88l-22.72-36.59h11.52l14.15,22.9c.34.58.76,1.35,1.27,2.3.51.95,1.02,1.98,1.54,3.09.43-1.08.88-2.09,1.36-3.04.48-.95.98-1.83,1.5-2.63l14.52-22.63h10.97l-23.23,36.59v30.88h-10.88Z"/>
    <path class="cls-1" d="m1062.57,553.33l8.76-4.06c.83,3.01,2.35,5.31,4.56,6.89,2.21,1.58,5.04,2.37,8.48,2.37,3.26,0,5.85-.91,7.77-2.72,1.92-1.81,2.88-4.24,2.88-7.28,0-3.96-3.29-7.5-9.86-10.6-.92-.46-1.63-.8-2.12-1.01-7.44-3.62-12.39-6.91-14.86-9.84-2.47-2.93-3.71-6.52-3.71-10.76,0-5.5,1.87-9.95,5.6-13.36s8.63-5.12,14.68-5.12c4.98,0,9.14.96,12.49,2.88,3.35,1.92,5.67,4.68,6.96,8.27l-8.57,4.42c-1.35-2.12-2.83-3.67-4.45-4.65-1.61-.98-3.46-1.47-5.55-1.47-2.95,0-5.29.77-7.03,2.3-1.74,1.54-2.6,3.59-2.6,6.18,0,4.06,3.81,7.83,11.43,11.34.58.28,1.04.49,1.38.65,6.67,3.07,11.24,6.08,13.73,9.01,2.49,2.93,3.73,6.6,3.73,10.99,0,6.39-2.01,11.47-6.04,15.23-4.02,3.76-9.46,5.65-16.31,5.65-5.75,0-10.45-1.32-14.13-3.96-3.67-2.64-6.08-6.42-7.21-11.34Z"/>
  </g>
</svg>