<?xml version="1.0" encoding="UTF-8"?>
<svg id="Calque_1" data-name="Calque 1" xmlns="http://www.w3.org/2000/svg" viewBox="0 0 1836.16 681.19">
  <defs>
    <style>
      .cls-1 {
        fill: #960000;
      }

      .cls-1, .cls-2 {
        stroke-width: 0px;
      }

      .cls-2 {
        fill: red;
      }
    </style>
  </defs>
  <path class="cls-1" d="m983.13,475.13c-1.32-2.26-4.76-1.62-5.17.97-2.37,14.78-7.45,46.4-7.85,48.43-.53,2.66,1.6,78.33-23.98,112.43-25.58,34.1,18.65-15.45,10.12-106.57-8.53-91.12-36.23-59.15-36.23-59.15,0,0-115.63,105.5-2.66,209.94,0,0,145.06-70.21,65.78-206.05Z"/>
  <g>
    <path class="cls-2" d="m889.84,559.54l20.17,50.46s-64.25,18.73-84.21-75.5l64.03,25.04Z"/>
    <path class="cls-2" d="m1016.62,557.13l-27.13,16.83-9.41,32.71s31.94,7.89,36.54-49.54Z"/>
  </g>
  <path class="cls-1" d="m779.53,563.07l-192.53-97.26s88.81,85.19,192.53,97.26Z"/>
  <path class="cls-1" d="m930.25,403.79l-64.44-92.51s46.06,45.66,64.44,92.51Z"/>
</svg>